<svg width="34" height="34" viewBox="0 0 34 34" fill="none" xmlns="http://www.w3.org/2000/svg">
<path d="M16.9999 32.2292C8.59909 32.2292 1.77075 25.4009 1.77075 17C1.77075 8.59921 8.59909 1.77087 16.9999 1.77087C25.4008 1.77087 32.2291 8.59921 32.2291 17C32.2291 25.4009 25.4008 32.2292 16.9999 32.2292ZM16.9999 3.89587C9.77492 3.89587 3.89575 9.77504 3.89575 17C3.89575 24.225 9.77492 30.1042 16.9999 30.1042C24.2249 30.1042 30.1041 24.225 30.1041 17C30.1041 9.77504 24.2249 3.89587 16.9999 3.89587Z" fill="#292D32"/>
<path d="M22.6666 18.0625H11.3333C10.7524 18.0625 10.2708 17.5808 10.2708 17C10.2708 16.4192 10.7524 15.9375 11.3333 15.9375H22.6666C23.2474 15.9375 23.7291 16.4192 23.7291 17C23.7291 17.5808 23.2474 18.0625 22.6666 18.0625Z" fill="#292D32"/>
<path d="M17 23.7292C16.4192 23.7292 15.9375 23.2475 15.9375 22.6667V11.3334C15.9375 10.7525 16.4192 10.2709 17 10.2709C17.5808 10.2709 18.0625 10.7525 18.0625 11.3334V22.6667C18.0625 23.2475 17.5808 23.7292 17 23.7292Z" fill="#292D32"/>
</svg>
