<svg width="34" height="34" viewBox="0 0 34 34" fill="none" xmlns="http://www.w3.org/2000/svg">
<path d="M17.0282 29.0842C13.7274 29.0842 10.4266 28.5601 7.29573 27.5117C6.10573 27.1009 5.19906 26.2651 4.8024 25.1742C4.39156 24.0834 4.53323 22.8792 5.1849 21.8026L6.81406 19.0967C7.15406 18.5301 7.46573 17.3967 7.46573 16.7309V12.6367C7.46573 7.36672 11.7582 3.07422 17.0282 3.07422C22.2982 3.07422 26.5907 7.36672 26.5907 12.6367V16.7309C26.5907 17.3826 26.9024 18.5301 27.2424 19.1109L28.8574 21.8026C29.4666 22.8226 29.5799 24.0551 29.1691 25.1742C28.7582 26.2934 27.8657 27.1434 26.7466 27.5117C23.6299 28.5601 20.3291 29.0842 17.0282 29.0842ZM17.0282 5.19922C12.9341 5.19922 9.59073 8.52839 9.59073 12.6367V16.7309C9.59073 17.7651 9.16573 19.2951 8.64156 20.1876L7.0124 22.8934C6.70073 23.4176 6.61573 23.9701 6.7999 24.4376C6.9699 24.9192 7.3949 25.2876 7.97573 25.4859C13.8974 27.4692 20.1732 27.4692 26.0949 25.4859C26.6049 25.3159 27.0016 24.9334 27.1857 24.4234C27.3699 23.9134 27.3274 23.3609 27.0441 22.8934L25.4149 20.1876C24.8766 19.2667 24.4657 17.7509 24.4657 16.7167V12.6367C24.4657 8.52839 21.1366 5.19922 17.0282 5.19922Z" fill="#292D32"/>
<path d="M19.6633 5.58163C19.5641 5.58163 19.465 5.56746 19.3658 5.53913C18.955 5.4258 18.5583 5.3408 18.1758 5.28413C16.9716 5.1283 15.81 5.2133 14.7191 5.53913C14.3225 5.66663 13.8975 5.53913 13.6283 5.24163C13.3591 4.94413 13.2741 4.51913 13.43 4.13663C14.0108 2.64913 15.4275 1.67163 17.0425 1.67163C18.6575 1.67163 20.0741 2.63496 20.655 4.13663C20.7966 4.51913 20.7258 4.94413 20.4566 5.24163C20.2441 5.4683 19.9466 5.58163 19.6633 5.58163Z" fill="#292D32"/>
<path d="M17.0283 32.3142C15.6258 32.3142 14.2658 31.7475 13.2742 30.7559C12.2825 29.7642 11.7158 28.4042 11.7158 27.0017H13.8408C13.8408 27.8375 14.1808 28.6592 14.7758 29.2542C15.3708 29.8492 16.1925 30.1892 17.0283 30.1892C18.785 30.1892 20.2158 28.7584 20.2158 27.0017H22.3408C22.3408 29.9342 19.9608 32.3142 17.0283 32.3142Z" fill="#292D32"/>
</svg>
